<svg id="Group_160258" data-name="Group 160258" xmlns="http://www.w3.org/2000/svg" width="43.941" height="43.941" viewBox="0 0 43.941 43.941">
  <path id="Path_37521" data-name="Path 37521" d="M23.846,24.107c-.018-.2-.032-.526-.042-.863,3.058-.313,5.2-1.047,5.2-1.9-.008,0-.008-.035-.008-.049-2.286-2.06,1.982-16.7-5.964-16.4a4.042,4.042,0,0,0-2.625-.8c-10.763.814-6,14.641-8.456,17.251h0s0,0,0,0h0c.01.837,2.083,1.557,5.052,1.878-.008.2-.026.457-.065.88C15.7,27.423,7.384,26.492,7,32.886H33.747C33.364,26.492,25.079,27.423,23.846,24.107Z" transform="translate(1.5 3.408)" fill="none" stroke="#cddee8" stroke-linecap="round" stroke-width="3"/>
  <path id="Path_37519" data-name="Path 37519" d="M0,0H43.941V43.941H0Z" fill="none"/>
</svg>
