<svg id="map_black_24dp" xmlns="http://www.w3.org/2000/svg" width="44" height="44" viewBox="0 0 44 44">
  <path id="Path_37534" data-name="Path 37534" d="M0,0H44V44H0Z" fill="none"/>
  <path id="Path_37535" data-name="Path 37535" d="M29.039,3l-.238.045-7.946,3.08L11.928,3,3.536,5.827A.75.75,0,0,0,3,6.541v22.5a.737.737,0,0,0,.744.744l.238-.045,7.946-3.08,8.928,3.125,8.392-2.827a.75.75,0,0,0,.536-.714V3.744A.737.737,0,0,0,29.039,3ZM13.416,6.675l5.952,2.083v17.35l-5.952-2.083ZM5.976,8.148l4.464-1.5V24.055L5.976,25.781ZM26.807,24.635l-4.464,1.5V8.744l4.464-1.726Z" transform="translate(5.608 5.608)" fill="#cddee8"/>
</svg>
