<svg id="person_black_24dp" xmlns="http://www.w3.org/2000/svg" width="43.941" height="43.941" viewBox="0 0 43.941 43.941">
  <path id="Path_37519" data-name="Path 37519" d="M0,0H43.941V43.941H0Z" fill="none"/>
  <path id="Path_37520" data-name="Path 37520" d="M18.647,7.662a3.662,3.662,0,1,1-3.662,3.662,3.673,3.673,0,0,1,3.662-3.662m0,18.309c4.943,0,10.619,2.362,10.985,3.662H7.662c.421-1.318,6.06-3.662,10.985-3.662M18.647,4a7.324,7.324,0,1,0,7.324,7.324A7.322,7.322,0,0,0,18.647,4Zm0,18.309C13.759,22.309,4,24.762,4,29.632v3.662H33.294V29.632C33.294,24.762,23.536,22.309,18.647,22.309Z" transform="translate(3.324 3.324)" fill="#cddee8"/>
</svg>
