<svg id="groups_black_24dp" xmlns="http://www.w3.org/2000/svg" width="44.391" height="44" viewBox="0 0 44.391 44">
  <rect id="Rectangle_147482" data-name="Rectangle 147482" width="44" height="44" fill="none"/>
  <g id="Group_160257" data-name="Group 160257" transform="translate(0.45 10.985)">
    <path id="Path_37516" data-name="Path 37516" d="M7.324,18.816a3.662,3.662,0,1,0-3.662-3.662A3.673,3.673,0,0,0,7.324,18.816ZM9.392,20.83a12.784,12.784,0,0,0-2.069-.183,12.726,12.726,0,0,0-5.09,1.062A3.682,3.682,0,0,0,0,25.1v2.874H8.239V25.023A8.237,8.237,0,0,1,9.392,20.83Zm27.225-2.014a3.662,3.662,0,1,0-3.662-3.662A3.673,3.673,0,0,0,36.618,18.816Zm7.324,6.28a3.682,3.682,0,0,0-2.234-3.387,12.447,12.447,0,0,0-7.159-.879A8.237,8.237,0,0,1,35.7,25.023v2.948h8.239Zm-14.208-5.09a19.12,19.12,0,0,0-7.763-1.648,19.427,19.427,0,0,0-7.763,1.648,5.471,5.471,0,0,0-3.222,5.017v2.948H32.956V25.023A5.471,5.471,0,0,0,29.734,20.006Zm-14.958,4.3c.165-.421.238-.714,1.666-1.263a15.422,15.422,0,0,1,11.059,0c1.41.549,1.483.842,1.666,1.263Zm7.2-14.647a1.831,1.831,0,1,1-1.831,1.831,1.836,1.836,0,0,1,1.831-1.831m0-3.662a5.493,5.493,0,1,0,5.493,5.493A5.485,5.485,0,0,0,21.971,6Z" transform="translate(0 -6)" fill="#cddee8"/>
  </g>
</svg>
